<svg xmlns="http://www.w3.org/2000/svg" xmlns:xlink="http://www.w3.org/1999/xlink" contentStyleType="text/css" data-diagram-type="CLASS" height="1079px" preserveAspectRatio="none" style="width:1836px;height:1079px;background:#1B1B1B;" version="1.1" viewBox="0 0 1836 1079" width="1836px" zoomAndPan="magnify"><defs/><g><rect fill="#1B1B1B" height="1079" style="stroke:none;stroke-width:1;" width="1836" x="0" y="0"/><!--class TipoHabitat--><g class="entity" data-qualified-name="TipoHabitat" data-source-line="5" id="ent0002"><rect fill="#313139" height="88.8906" rx="2.5" ry="2.5" style="stroke:#E7E7E7;stroke-width:0.5;" width="113.334" x="1152.13" y="7"/><ellipse cx="1167.13" cy="23" fill="#852D19" rx="11" ry="11" style="stroke:#E7E7E7;stroke-width:1;"/><path d="M1171.2394,29 L1163.5206,29 L1163.5206,16.6094 L1171.2394,16.6094 L1171.2394,18.7656 L1165.9738,18.7656 L1165.9738,21.4375 L1170.7394,21.4375 L1170.7394,23.5938 L1165.9738,23.5938 L1165.9738,26.8438 L1171.2394,26.8438 L1171.2394,29 Z " fill="#FFFFFF"/><text fill="#FFFFFF" font-family="sans-serif" font-size="14" lengthAdjust="spacing" textLength="81.334" x="1181.13" y="27.8467">TipoHabitat</text><line style="stroke:#E7E7E7;stroke-width:0.5;" x1="1153.13" x2="1264.464" y1="39" y2="39"/><text fill="#FFFFFF" font-family="sans-serif" font-size="14" lengthAdjust="spacing" textLength="64.4424" x="1158.13" y="55.9951">Terrestre</text><text fill="#FFFFFF" font-family="sans-serif" font-size="14" lengthAdjust="spacing" textLength="61.5576" x="1158.13" y="72.292">Aquatico</text><text fill="#FFFFFF" font-family="sans-serif" font-size="14" lengthAdjust="spacing" textLength="41.125" x="1158.13" y="88.5889">Aereo</text></g><!--class IComSom--><g class="entity" data-qualified-name="IComSom" data-source-line="12" id="ent0003"><rect fill="#313139" height="56.2969" rx="2.5" ry="2.5" style="stroke:#E7E7E7;stroke-width:0.5;" width="150.4961" x="1296.55" y="683.93"/><ellipse cx="1334.6345" cy="699.93" fill="#352866" rx="11" ry="11" style="stroke:#E7E7E7;stroke-width:1;"/><path d="M1330.5563,695.6956 L1330.5563,693.5394 L1337.947,693.5394 L1337.947,695.6956 L1335.4782,695.6956 L1335.4782,703.7738 L1337.947,703.7738 L1337.947,705.93 L1330.5563,705.93 L1330.5563,703.7738 L1333.0251,703.7738 L1333.0251,695.6956 L1330.5563,695.6956 Z " fill="#FFFFFF"/><text fill="#FFFFFF" font-family="sans-serif" font-size="14" font-style="italic" lengthAdjust="spacing" textLength="67.1973" x="1353.7644" y="704.7767">IComSom</text><line style="stroke:#E7E7E7;stroke-width:0.5;" x1="1297.55" x2="1446.0461" y1="715.93" y2="715.93"/><text fill="#FFFFFF" font-family="sans-serif" font-size="14" lengthAdjust="spacing" textLength="138.4961" x="1302.55" y="732.9251">+EmitirSom() : void</text></g><!--class IMovimentacao--><g class="entity" data-qualified-name="IMovimentacao" data-source-line="16" id="ent0004"><rect fill="#313139" height="56.2969" rx="2.5" ry="2.5" style="stroke:#E7E7E7;stroke-width:0.5;" width="138.9824" x="1482.31" y="683.93"/><ellipse cx="1497.31" cy="699.93" fill="#352866" rx="11" ry="11" style="stroke:#E7E7E7;stroke-width:1;"/><path d="M1493.2319,695.6956 L1493.2319,693.5394 L1500.6225,693.5394 L1500.6225,695.6956 L1498.1538,695.6956 L1498.1538,703.7738 L1500.6225,703.7738 L1500.6225,705.93 L1493.2319,705.93 L1493.2319,703.7738 L1495.7006,703.7738 L1495.7006,695.6956 L1493.2319,695.6956 Z " fill="#FFFFFF"/><text fill="#FFFFFF" font-family="sans-serif" font-size="14" font-style="italic" lengthAdjust="spacing" textLength="106.9824" x="1511.31" y="704.7767">IMovimentacao</text><line style="stroke:#E7E7E7;stroke-width:0.5;" x1="1483.31" x2="1620.2924" y1="715.93" y2="715.93"/><text fill="#FFFFFF" font-family="sans-serif" font-size="14" lengthAdjust="spacing" textLength="109.1973" x="1488.31" y="732.9251">+Mover() : void</text></g><!--class IAnimalDomesticado--><g class="entity" data-qualified-name="IAnimalDomesticado" data-source-line="20" id="ent0005"><rect fill="#313139" height="80.5938" rx="2.5" ry="2.5" style="stroke:#E7E7E7;stroke-width:0.5;" width="176.5732" x="1235.51" y="991.72"/><ellipse cx="1250.51" cy="1007.72" fill="#352866" rx="11" ry="11" style="stroke:#E7E7E7;stroke-width:1;"/><path d="M1246.4319,1003.4856 L1246.4319,1001.3294 L1253.8225,1001.3294 L1253.8225,1003.4856 L1251.3538,1003.4856 L1251.3538,1011.5637 L1253.8225,1011.5637 L1253.8225,1013.72 L1246.4319,1013.72 L1246.4319,1011.5637 L1248.9006,1011.5637 L1248.9006,1003.4856 L1246.4319,1003.4856 Z " fill="#FFFFFF"/><text fill="#FFFFFF" font-family="sans-serif" font-size="14" font-style="italic" lengthAdjust="spacing" textLength="144.5732" x="1264.51" y="1012.5667">IAnimalDomesticado</text><line style="stroke:#E7E7E7;stroke-width:0.5;" x1="1236.51" x2="1411.0832" y1="1023.72" y2="1023.72"/><text fill="#FFFFFF" font-family="sans-serif" font-size="14" lengthAdjust="spacing" textLength="102.3203" x="1241.51" y="1040.7151">+Dono : string</text><line style="stroke:#E7E7E7;stroke-width:0.5;" x1="1236.51" x2="1411.0832" y1="1048.0169" y2="1048.0169"/><text fill="#FFFFFF" font-family="sans-serif" font-size="14" lengthAdjust="spacing" textLength="116.0537" x="1241.51" y="1065.012">+Brincar() : void</text></g><!--class IVoador--><g class="entity" data-qualified-name="IVoador" data-source-line="25" id="ent0006"><rect fill="#313139" height="56.2969" rx="2.5" ry="2.5" style="stroke:#E7E7E7;stroke-width:0.5;" width="110.376" x="140.61" y="1003.86"/><ellipse cx="166.5528" cy="1019.86" fill="#352866" rx="11" ry="11" style="stroke:#E7E7E7;stroke-width:1;"/><path d="M162.4747,1015.6256 L162.4747,1013.4694 L169.8653,1013.4694 L169.8653,1015.6256 L167.3966,1015.6256 L167.3966,1023.7037 L169.8653,1023.7037 L169.8653,1025.86 L162.4747,1025.86 L162.4747,1023.7037 L164.9434,1023.7037 L164.9434,1015.6256 L162.4747,1015.6256 Z " fill="#FFFFFF"/><text fill="#FFFFFF" font-family="sans-serif" font-size="14" font-style="italic" lengthAdjust="spacing" textLength="54.0586" x="182.9846" y="1024.7067">IVoador</text><line style="stroke:#E7E7E7;stroke-width:0.5;" x1="141.61" x2="249.986" y1="1035.86" y2="1035.86"/><text fill="#FFFFFF" font-family="sans-serif" font-size="14" lengthAdjust="spacing" textLength="98.376" x="146.61" y="1052.8551">+Voar() : void</text></g><!--class IOviparo--><g class="entity" data-qualified-name="IOviparo" data-source-line="29" id="ent0007"><rect fill="#313139" height="56.2969" rx="2.5" ry="2.5" style="stroke:#E7E7E7;stroke-width:0.5;" width="143.7627" x="348.92" y="1003.86"/><ellipse cx="387.6136" cy="1019.86" fill="#352866" rx="11" ry="11" style="stroke:#E7E7E7;stroke-width:1;"/><path d="M383.5354,1015.6256 L383.5354,1013.4694 L390.9261,1013.4694 L390.9261,1015.6256 L388.4573,1015.6256 L388.4573,1023.7037 L390.9261,1023.7037 L390.9261,1025.86 L383.5354,1025.86 L383.5354,1023.7037 L386.0042,1023.7037 L386.0042,1015.6256 L383.5354,1015.6256 Z " fill="#FFFFFF"/><text fill="#FFFFFF" font-family="sans-serif" font-size="14" font-style="italic" lengthAdjust="spacing" textLength="59.1104" x="406.8788" y="1024.7067">IOviparo</text><line style="stroke:#E7E7E7;stroke-width:0.5;" x1="349.92" x2="491.6827" y1="1035.86" y2="1035.86"/><text fill="#FFFFFF" font-family="sans-serif" font-size="14" lengthAdjust="spacing" textLength="131.7627" x="354.92" y="1052.8551">+BotarOvo() : void</text></g><!--class Animal--><g class="entity" data-qualified-name="Animal" data-source-line="34" id="ent0008"><rect fill="#313139" height="178.375" rx="2.5" ry="2.5" style="stroke:#E7E7E7;stroke-width:0.5;" width="535.5508" x="794.02" y="444.56"/><ellipse cx="1033.3222" cy="460.56" fill="#2A5D60" rx="11" ry="11" style="stroke:#E7E7E7;stroke-width:1;"/><path d="M1033.4316,455.9037 L1032.2754,460.9819 L1034.6035,460.9819 L1033.4316,455.9037 Z M1031.9472,453.6694 L1034.9316,453.6694 L1038.291,466.06 L1035.8379,466.06 L1035.0722,462.9975 L1031.791,462.9975 L1031.041,466.06 L1028.6035,466.06 L1031.9472,453.6694 Z " fill="#FFFFFF"/><text fill="#FFFFFF" font-family="sans-serif" font-size="14" font-style="italic" lengthAdjust="spacing" textLength="48.4463" x="1053.8222" y="465.4067">Animal</text><line style="stroke:#E7E7E7;stroke-width:0.5;" x1="795.02" x2="1328.5708" y1="476.56" y2="476.56"/><text fill="#FFFFFF" font-family="sans-serif" font-size="14" lengthAdjust="spacing" textLength="106.8252" x="800.02" y="493.5551">+Nome : string</text><text fill="#FFFFFF" font-family="sans-serif" font-size="14" lengthAdjust="spacing" textLength="210.041" x="800.02" y="509.852">+DataNascimento : DateTime</text><text fill="#FFFFFF" font-family="sans-serif" font-size="14" lengthAdjust="spacing" textLength="158.1221" x="800.02" y="526.1489">+Habitat : TipoHabitat</text><text fill="#FFFFFF" font-family="sans-serif" font-size="14" lengthAdjust="spacing" textLength="127.2646" x="800.02" y="542.4457">+Idade : int &#171;get&#187;</text><line style="stroke:#E7E7E7;stroke-width:0.5;" x1="795.02" x2="1328.5708" y1="549.7475" y2="549.7475"/><text fill="#FFFFFF" font-family="sans-serif" font-size="14" lengthAdjust="spacing" textLength="523.5508" x="800.02" y="566.7426">+Animal(nome : string, dataNascimento : DateTime, habitat : TipoHabitat)</text><text fill="#FFFFFF" font-family="sans-serif" font-size="14" font-style="italic" lengthAdjust="spacing" textLength="138.4961" x="800.02" y="583.0395">+EmitirSom() : void</text><text fill="#FFFFFF" font-family="sans-serif" font-size="14" lengthAdjust="spacing" textLength="180.6738" x="800.02" y="599.3364">{virtual} + Mover() : void</text><text fill="#FFFFFF" font-family="sans-serif" font-size="14" lengthAdjust="spacing" textLength="135.3584" x="800.02" y="615.6332">+ToString() : string</text></g><!--class Mamifero--><g class="entity" data-qualified-name="Mamifero" data-source-line="45" id="ent0009"><rect fill="#313139" height="56.2969" rx="2.5" ry="2.5" style="stroke:#E7E7E7;stroke-width:0.5;" width="399.5156" x="862.04" y="683.93"/><ellipse cx="1024.5234" cy="699.93" fill="#DA70D6" rx="11" ry="11" style="stroke:#E7E7E7;stroke-width:1;"/><path d="M1020.2421,693.5394 L1023.164,693.5394 L1024.6328,698.9769 L1026.1015,693.5394 L1029.039,693.5394 L1029.039,705.93 L1026.9296,705.93 L1026.9296,696.0081 L1025.6171,701.43 L1023.6796,701.43 L1022.3515,696.0081 L1022.3515,705.93 L1020.2421,705.93 L1020.2421,693.5394 Z " fill="#FFFFFF"/><text fill="#FFFFFF" font-family="sans-serif" font-size="14" font-style="italic" lengthAdjust="spacing" textLength="66.0488" x="1045.0234" y="704.7767">Mamifero</text><line style="stroke:#E7E7E7;stroke-width:0.5;" x1="863.04" x2="1260.5556" y1="715.93" y2="715.93"/><text fill="#FFFFFF" font-family="sans-serif" font-size="14" lengthAdjust="spacing" textLength="387.5156" x="868.04" y="732.9251">+Mamifero(nome : string, dataNascimento : DateTime)</text></g><!--class Peixe--><g class="entity" data-qualified-name="Peixe" data-source-line="49" id="ent0010"><rect fill="#313139" height="56.2969" rx="2.5" ry="2.5" style="stroke:#E7E7E7;stroke-width:0.5;" width="371.3105" x="447.14" y="683.93"/><ellipse cx="609.6234" cy="699.93" fill="#ADD8E6" rx="11" ry="11" style="stroke:#E7E7E7;stroke-width:1;"/><path d="M609.4203,695.6019 L609.4203,699.2269 L610.4203,699.2269 Q611.6234,699.2269 612.1078,698.8206 Q612.5921,698.4144 612.5921,697.4144 Q612.5921,696.4144 612.1078,696.0081 Q611.6234,695.6019 610.4203,695.6019 L609.4203,695.6019 Z M606.9671,693.5394 L610.3265,693.5394 Q612.889,693.5394 614.014,694.4613 Q615.139,695.3675 615.139,697.4144 Q615.139,699.4613 614.014,700.3831 Q612.889,701.2894 610.3265,701.2894 L609.4203,701.2894 L609.4203,705.93 L606.9671,705.93 L606.9671,693.5394 Z " fill="#FFFFFF"/><text fill="#FFFFFF" font-family="sans-serif" font-size="14" font-style="italic" lengthAdjust="spacing" textLength="37.8438" x="630.1234" y="704.7767">Peixe</text><line style="stroke:#E7E7E7;stroke-width:0.5;" x1="448.14" x2="817.4505" y1="715.93" y2="715.93"/><text fill="#FFFFFF" font-family="sans-serif" font-size="14" lengthAdjust="spacing" textLength="359.3105" x="453.14" y="732.9251">+Peixe(nome : string, dataNascimento : DateTime)</text></g><!--class Ave--><g class="entity" data-qualified-name="Ave" data-source-line="53" id="ent0011"><rect fill="#313139" height="56.2969" rx="2.5" ry="2.5" style="stroke:#E7E7E7;stroke-width:0.5;" width="359.9424" x="39.83" y="683.93"/><ellipse cx="202.3134" cy="699.93" fill="#FFFF00" rx="11" ry="11" style="stroke:#E7E7E7;stroke-width:1;"/><path d="M202.4228,695.2738 L201.2665,700.3519 L203.5946,700.3519 L202.4228,695.2738 Z M200.9384,693.0394 L203.9228,693.0394 L207.2821,705.43 L204.829,705.43 L204.0634,702.3675 L200.7821,702.3675 L200.0321,705.43 L197.5946,705.43 L200.9384,693.0394 Z " fill="#FFFFFF"/><text fill="#FFFFFF" font-family="sans-serif" font-size="14" font-style="italic" lengthAdjust="spacing" textLength="26.4756" x="222.8134" y="704.7767">Ave</text><line style="stroke:#E7E7E7;stroke-width:0.5;" x1="40.83" x2="398.7724" y1="715.93" y2="715.93"/><text fill="#FFFFFF" font-family="sans-serif" font-size="14" lengthAdjust="spacing" textLength="347.9424" x="45.83" y="732.9251">+Ave(nome : string, dataNascimento : DateTime)</text></g><!--class Gato--><g class="entity" data-qualified-name="Gato" data-source-line="65" id="ent0017"><rect fill="#313139" height="129.4844" rx="2.5" ry="2.5" style="stroke:#E7E7E7;stroke-width:0.5;" width="464.5459" x="834.53" y="801.23"/><ellipse cx="1045.8117" cy="817.23" fill="#2E5233" rx="11" ry="11" style="stroke:#E7E7E7;stroke-width:1;"/><path d="M1048.7805,822.8706 Q1048.2024,823.1675 1047.5617,823.3081 Q1046.9211,823.4644 1046.218,823.4644 Q1043.718,823.4644 1042.3899,821.8238 Q1041.0774,820.1675 1041.0774,817.0425 Q1041.0774,813.9175 1042.3899,812.2613 Q1043.718,810.605 1046.218,810.605 Q1046.9211,810.605 1047.5617,810.7613 Q1048.218,810.9175 1048.7805,811.2144 L1048.7805,813.9331 Q1048.1555,813.355 1047.5617,813.0894 Q1046.968,812.8081 1046.343,812.8081 Q1044.9992,812.8081 1044.3117,813.8863 Q1043.6242,814.9488 1043.6242,817.0425 Q1043.6242,819.1363 1044.3117,820.2144 Q1044.9992,821.2769 1046.343,821.2769 Q1046.968,821.2769 1047.5617,821.0113 Q1048.1555,820.73 1048.7805,820.1519 L1048.7805,822.8706 Z " fill="#FFFFFF"/><text fill="#FFFFFF" font-family="sans-serif" font-size="14" lengthAdjust="spacing" textLength="33.4824" x="1066.3117" y="822.0767">Gato</text><line style="stroke:#E7E7E7;stroke-width:0.5;" x1="835.53" x2="1298.0759" y1="833.23" y2="833.23"/><text fill="#FFFFFF" font-family="sans-serif" font-size="14" lengthAdjust="spacing" textLength="102.3203" x="840.53" y="850.2251">+Dono : string</text><line style="stroke:#E7E7E7;stroke-width:0.5;" x1="835.53" x2="1298.0759" y1="857.5269" y2="857.5269"/><text fill="#FFFFFF" font-family="sans-serif" font-size="14" lengthAdjust="spacing" textLength="452.5459" x="840.53" y="874.522">+Gato(nome : string, dataNascimento : DateTime, dono : string)</text><text fill="#FFFFFF" font-family="sans-serif" font-size="14" lengthAdjust="spacing" textLength="138.4961" x="840.53" y="890.8189">+EmitirSom() : void</text><text fill="#FFFFFF" font-family="sans-serif" font-size="14" lengthAdjust="spacing" textLength="109.1973" x="840.53" y="907.1157">+Mover() : void</text><text fill="#FFFFFF" font-family="sans-serif" font-size="14" lengthAdjust="spacing" textLength="116.0537" x="840.53" y="923.4126">+Brincar() : void</text></g><!--class Cachorro--><g class="entity" data-qualified-name="Cachorro" data-source-line="73" id="ent0018"><rect fill="#313139" height="129.4844" rx="2.5" ry="2.5" style="stroke:#E7E7E7;stroke-width:0.5;" width="494.6309" x="1334.48" y="801.23"/><ellipse cx="1545.7617" cy="817.23" fill="#2E5233" rx="11" ry="11" style="stroke:#E7E7E7;stroke-width:1;"/><path d="M1548.7305,822.8706 Q1548.1524,823.1675 1547.5117,823.3081 Q1546.8711,823.4644 1546.168,823.4644 Q1543.668,823.4644 1542.3399,821.8238 Q1541.0274,820.1675 1541.0274,817.0425 Q1541.0274,813.9175 1542.3399,812.2613 Q1543.668,810.605 1546.168,810.605 Q1546.8711,810.605 1547.5117,810.7613 Q1548.168,810.9175 1548.7305,811.2144 L1548.7305,813.9331 Q1548.1055,813.355 1547.5117,813.0894 Q1546.918,812.8081 1546.293,812.8081 Q1544.9492,812.8081 1544.2617,813.8863 Q1543.5742,814.9488 1543.5742,817.0425 Q1543.5742,819.1363 1544.2617,820.2144 Q1544.9492,821.2769 1546.293,821.2769 Q1546.918,821.2769 1547.5117,821.0113 Q1548.1055,820.73 1548.7305,820.1519 L1548.7305,822.8706 Z " fill="#FFFFFF"/><text fill="#FFFFFF" font-family="sans-serif" font-size="14" lengthAdjust="spacing" textLength="63.5674" x="1566.2617" y="822.0767">Cachorro</text><line style="stroke:#E7E7E7;stroke-width:0.5;" x1="1335.48" x2="1828.1109" y1="833.23" y2="833.23"/><text fill="#FFFFFF" font-family="sans-serif" font-size="14" lengthAdjust="spacing" textLength="102.3203" x="1340.48" y="850.2251">+Dono : string</text><line style="stroke:#E7E7E7;stroke-width:0.5;" x1="1335.48" x2="1828.1109" y1="857.5269" y2="857.5269"/><text fill="#FFFFFF" font-family="sans-serif" font-size="14" lengthAdjust="spacing" textLength="482.6309" x="1340.48" y="874.522">+Cachorro(nome : string, dataNascimento : DateTime, dono : string)</text><text fill="#FFFFFF" font-family="sans-serif" font-size="14" lengthAdjust="spacing" textLength="138.4961" x="1340.48" y="890.8189">+EmitirSom() : void</text><text fill="#FFFFFF" font-family="sans-serif" font-size="14" lengthAdjust="spacing" textLength="109.1973" x="1340.48" y="907.1157">+Mover() : void</text><text fill="#FFFFFF" font-family="sans-serif" font-size="14" lengthAdjust="spacing" textLength="116.0537" x="1340.48" y="923.4126">+Brincar() : void</text></g><!--class Tilapia--><g class="entity" data-qualified-name="Tilapia" data-source-line="81" id="ent0019"><rect fill="#313139" height="105.1875" rx="2.5" ry="2.5" style="stroke:#E7E7E7;stroke-width:0.5;" width="379.7324" x="419.93" y="813.38"/><ellipse cx="582.4134" cy="829.38" fill="#2E5233" rx="11" ry="11" style="stroke:#E7E7E7;stroke-width:1;"/><path d="M585.3821,835.0206 Q584.804,835.3175 584.1634,835.4581 Q583.5228,835.6144 582.8196,835.6144 Q580.3196,835.6144 578.9915,833.9737 Q577.679,832.3175 577.679,829.1925 Q577.679,826.0675 578.9915,824.4112 Q580.3196,822.755 582.8196,822.755 Q583.5228,822.755 584.1634,822.9112 Q584.8196,823.0675 585.3821,823.3644 L585.3821,826.0831 Q584.7571,825.505 584.1634,825.2394 Q583.5696,824.9581 582.9446,824.9581 Q581.6009,824.9581 580.9134,826.0362 Q580.2259,827.0987 580.2259,829.1925 Q580.2259,831.2862 580.9134,832.3644 Q581.6009,833.4269 582.9446,833.4269 Q583.5696,833.4269 584.1634,833.1612 Q584.7571,832.88 585.3821,832.3019 L585.3821,835.0206 Z " fill="#FFFFFF"/><text fill="#FFFFFF" font-family="sans-serif" font-size="14" lengthAdjust="spacing" textLength="46.2656" x="602.9134" y="834.2267">Tilapia</text><line style="stroke:#E7E7E7;stroke-width:0.5;" x1="420.93" x2="798.6624" y1="845.38" y2="845.38"/><text fill="#FFFFFF" font-family="sans-serif" font-size="14" lengthAdjust="spacing" textLength="367.7324" x="425.93" y="862.3751">+Tilapia(nome : string, dataNascimento : DateTime)</text><text fill="#FFFFFF" font-family="sans-serif" font-size="14" lengthAdjust="spacing" textLength="138.4961" x="425.93" y="878.672">+EmitirSom() : void</text><text fill="#FFFFFF" font-family="sans-serif" font-size="14" lengthAdjust="spacing" textLength="109.1973" x="425.93" y="894.9689">+Mover() : void</text><text fill="#FFFFFF" font-family="sans-serif" font-size="14" lengthAdjust="spacing" textLength="131.7627" x="425.93" y="911.2657">+BotarOvo() : void</text></g><!--class Pardal--><g class="entity" data-qualified-name="Pardal" data-source-line="88" id="ent0020"><rect fill="#313139" height="121.4844" rx="2.5" ry="2.5" style="stroke:#E7E7E7;stroke-width:0.5;" width="377.5996" x="7" y="805.23"/><ellipse cx="169.4834" cy="821.23" fill="#2E5233" rx="11" ry="11" style="stroke:#E7E7E7;stroke-width:1;"/><path d="M172.4521,826.8706 Q171.874,827.1675 171.2334,827.3081 Q170.5928,827.4644 169.8896,827.4644 Q167.3896,827.4644 166.0615,825.8238 Q164.749,824.1675 164.749,821.0425 Q164.749,817.9175 166.0615,816.2613 Q167.3896,814.605 169.8896,814.605 Q170.5928,814.605 171.2334,814.7613 Q171.8896,814.9175 172.4521,815.2144 L172.4521,817.9331 Q171.8271,817.355 171.2334,817.0894 Q170.6396,816.8081 170.0146,816.8081 Q168.6709,816.8081 167.9834,817.8863 Q167.2959,818.9488 167.2959,821.0425 Q167.2959,823.1363 167.9834,824.2144 Q168.6709,825.2769 170.0146,825.2769 Q170.6396,825.2769 171.2334,825.0113 Q171.8271,824.73 172.4521,824.1519 L172.4521,826.8706 Z " fill="#FFFFFF"/><text fill="#FFFFFF" font-family="sans-serif" font-size="14" lengthAdjust="spacing" textLength="44.1328" x="189.9834" y="826.0767">Pardal</text><line style="stroke:#E7E7E7;stroke-width:0.5;" x1="8" x2="383.5996" y1="837.23" y2="837.23"/><text fill="#FFFFFF" font-family="sans-serif" font-size="14" lengthAdjust="spacing" textLength="365.5996" x="13" y="854.2251">+Pardal(nome : string, dataNascimento : DateTime)</text><text fill="#FFFFFF" font-family="sans-serif" font-size="14" lengthAdjust="spacing" textLength="138.4961" x="13" y="870.522">+EmitirSom() : void</text><text fill="#FFFFFF" font-family="sans-serif" font-size="14" lengthAdjust="spacing" textLength="109.1973" x="13" y="886.8189">+Mover() : void</text><text fill="#FFFFFF" font-family="sans-serif" font-size="14" lengthAdjust="spacing" textLength="98.376" x="13" y="903.1157">+Voar() : void</text><text fill="#FFFFFF" font-family="sans-serif" font-size="14" lengthAdjust="spacing" textLength="131.7627" x="13" y="919.4126">+BotarOvo() : void</text></g><!--class RepositorioAnimaisJson--><g class="entity" data-qualified-name="RepositorioAnimaisJson" data-source-line="108" id="ent0034"><rect fill="#313139" height="113.1875" rx="2.5" ry="2.5" style="stroke:#E7E7E7;stroke-width:0.5;" width="366.252" x="639.67" y="213.63"/><ellipse cx="736.6241" cy="229.63" fill="#2E5233" rx="11" ry="11" style="stroke:#E7E7E7;stroke-width:1;"/><path d="M739.5929,235.2706 Q739.0147,235.5675 738.3741,235.7081 Q737.7335,235.8644 737.0304,235.8644 Q734.5304,235.8644 733.2022,234.2238 Q731.8897,232.5675 731.8897,229.4425 Q731.8897,226.3175 733.2022,224.6613 Q734.5304,223.005 737.0304,223.005 Q737.7335,223.005 738.3741,223.1613 Q739.0304,223.3175 739.5929,223.6144 L739.5929,226.3331 Q738.9679,225.755 738.3741,225.4894 Q737.7804,225.2081 737.1554,225.2081 Q735.8116,225.2081 735.1241,226.2863 Q734.4366,227.3488 734.4366,229.4425 Q734.4366,231.5363 735.1241,232.6144 Q735.8116,233.6769 737.1554,233.6769 Q737.7804,233.6769 738.3741,233.4113 Q738.9679,233.13 739.5929,232.5519 L739.5929,235.2706 Z " fill="#FFFFFF"/><text fill="#FFFFFF" font-family="sans-serif" font-size="14" lengthAdjust="spacing" textLength="163.8438" x="757.1241" y="234.4767">RepositorioAnimaisJson</text><line style="stroke:#E7E7E7;stroke-width:0.5;" x1="640.67" x2="1004.922" y1="245.63" y2="245.63"/><text fill="#FFFFFF" font-family="sans-serif" font-size="14" lengthAdjust="spacing" textLength="179.8057" x="645.67" y="262.6251">-_caminhoArquivo : string</text><line style="stroke:#E7E7E7;stroke-width:0.5;" x1="640.67" x2="1004.922" y1="269.9269" y2="269.9269"/><text fill="#FFFFFF" font-family="sans-serif" font-size="14" lengthAdjust="spacing" textLength="354.252" x="645.67" y="286.922">+RepositorioAnimaisJson(caminhoArquivo : string)</text><text fill="#FFFFFF" font-family="sans-serif" font-size="14" lengthAdjust="spacing" textLength="338.8369" x="645.67" y="303.2189">+Salvar(animais : IEnumerable&lt;Animal&gt;) : void</text><text fill="#FFFFFF" font-family="sans-serif" font-size="14" lengthAdjust="spacing" textLength="194.3525" x="645.67" y="319.5157">+Carregar() : List&lt;Animal&gt;</text></g><!--class Zoologico--><g class="entity" data-qualified-name="Zoologico" data-source-line="116" id="ent0035"><rect fill="#313139" height="194.6719" rx="2.5" ry="2.5" style="stroke:#E7E7E7;stroke-width:0.5;" width="522.3643" x="1040.62" y="172.89"/><ellipse cx="1263.4442" cy="188.89" fill="#2E5233" rx="11" ry="11" style="stroke:#E7E7E7;stroke-width:1;"/><path d="M1266.413,194.5306 Q1265.8348,194.8275 1265.1942,194.9681 Q1264.5536,195.1244 1263.8505,195.1244 Q1261.3505,195.1244 1260.0223,193.4838 Q1258.7098,191.8275 1258.7098,188.7025 Q1258.7098,185.5775 1260.0223,183.9213 Q1261.3505,182.265 1263.8505,182.265 Q1264.5536,182.265 1265.1942,182.4213 Q1265.8505,182.5775 1266.413,182.8744 L1266.413,185.5931 Q1265.788,185.015 1265.1942,184.7494 Q1264.6005,184.4681 1263.9755,184.4681 Q1262.6317,184.4681 1261.9442,185.5463 Q1261.2567,186.6088 1261.2567,188.7025 Q1261.2567,190.7963 1261.9442,191.8744 Q1262.6317,192.9369 1263.9755,192.9369 Q1264.6005,192.9369 1265.1942,192.6713 Q1265.788,192.39 1266.413,191.8119 L1266.413,194.5306 Z " fill="#FFFFFF"/><text fill="#FFFFFF" font-family="sans-serif" font-size="14" lengthAdjust="spacing" textLength="68.2158" x="1283.9442" y="193.7367">Zoologico</text><line style="stroke:#E7E7E7;stroke-width:0.5;" x1="1041.62" x2="1561.9843" y1="204.89" y2="204.89"/><text fill="#FFFFFF" font-family="sans-serif" font-size="14" lengthAdjust="spacing" textLength="176.791" x="1046.62" y="221.8851">-_animais : List&lt;Animal&gt;</text><text fill="#FFFFFF" font-family="sans-serif" font-size="14" lengthAdjust="spacing" textLength="294.2461" x="1046.62" y="238.182">+Animais : IReadOnlyCollection&lt;Animal&gt;</text><line style="stroke:#E7E7E7;stroke-width:0.5;" x1="1041.62" x2="1561.9843" y1="245.4838" y2="245.4838"/><text fill="#FFFFFF" font-family="sans-serif" font-size="14" lengthAdjust="spacing" textLength="90.8701" x="1046.62" y="262.4789">+Zoologico()</text><text fill="#FFFFFF" font-family="sans-serif" font-size="14" lengthAdjust="spacing" textLength="241.124" x="1046.62" y="278.7757">+Adicionar(animal : Animal) : void</text><text fill="#FFFFFF" font-family="sans-serif" font-size="14" lengthAdjust="spacing" textLength="271.3184" x="1046.62" y="295.0726">+Remover(nomeAnimal : string) : bool</text><text fill="#FFFFFF" font-family="sans-serif" font-size="14" lengthAdjust="spacing" textLength="290.0693" x="1046.62" y="311.3695">+BuscarPorNome(nome : string) : Animal</text><text fill="#FFFFFF" font-family="sans-serif" font-size="14" lengthAdjust="spacing" textLength="469.376" x="1046.62" y="327.6664">+ListarAnimaisDomesticos() : IEnumerable&lt;IAnimalDomesticado&gt;</text><text fill="#FFFFFF" font-family="sans-serif" font-size="14" lengthAdjust="spacing" textLength="510.3643" x="1046.62" y="343.9632">+ListarAnimaisPorHabitat(habitat : TipoHabitat) : IEnumerable&lt;Animal&gt;</text><text fill="#FFFFFF" font-family="sans-serif" font-size="14" lengthAdjust="spacing" textLength="443.5908" x="1046.62" y="360.2601">+ObterAnimaisAgrupadosPorTipo() : IGrouping&lt;Type, Animal&gt;</text></g><!--class Program--><g class="entity" data-qualified-name="Program" data-source-line="131" id="ent0037"><rect fill="#313139" height="56.2969" rx="2.5" ry="2.5" style="stroke:#E7E7E7;stroke-width:0.5;" width="111.3193" x="1006.14" y="23.29"/><ellipse cx="1030.0033" cy="39.29" fill="#2E5233" rx="11" ry="11" style="stroke:#E7E7E7;stroke-width:1;"/><path d="M1032.9721,44.9306 Q1032.394,45.2275 1031.7533,45.3681 Q1031.1127,45.5244 1030.4096,45.5244 Q1027.9096,45.5244 1026.5815,43.8837 Q1025.269,42.2275 1025.269,39.1025 Q1025.269,35.9775 1026.5815,34.3212 Q1027.9096,32.665 1030.4096,32.665 Q1031.1127,32.665 1031.7533,32.8212 Q1032.4096,32.9775 1032.9721,33.2744 L1032.9721,35.9931 Q1032.3471,35.415 1031.7533,35.1494 Q1031.1596,34.8681 1030.5346,34.8681 Q1029.1908,34.8681 1028.5033,35.9462 Q1027.8158,37.0087 1027.8158,39.1025 Q1027.8158,41.1962 1028.5033,42.2744 Q1029.1908,43.3369 1030.5346,43.3369 Q1031.1596,43.3369 1031.7533,43.0712 Q1032.3471,42.79 1032.9721,42.2119 L1032.9721,44.9306 Z " fill="#FFFFFF"/><text fill="#FFFFFF" font-family="sans-serif" font-size="14" lengthAdjust="spacing" textLength="59.623" x="1045.973" y="44.1367">Program</text><line style="stroke:#E7E7E7;stroke-width:0.5;" x1="1007.14" x2="1116.4593" y1="55.29" y2="55.29"/><text fill="#FFFFFF" font-family="sans-serif" font-size="14" lengthAdjust="spacing" textLength="99.3193" x="1012.14" y="72.2851">+Main() : void</text></g><!--reverse link Animal to Mamifero--><g class="link" data-entity-1="ent0008" data-entity-2="ent0009" data-link-type="extension" data-source-line="57" id="lnk12"><path codeLine="57" d="M1061.8,641.43 C1061.8,663.39 1061.8,667.3 1061.8,683.72" fill="none" id="Animal-backto-Mamifero" style="stroke:#E7E7E7;stroke-width:1;"/><polygon fill="none" points="1061.8,623.43,1055.8,641.43,1067.8,641.43,1061.8,623.43" style="stroke:#E7E7E7;stroke-width:1;"/></g><!--reverse link Animal to Peixe--><g class="link" data-entity-1="ent0008" data-entity-2="ent0010" data-link-type="extension" data-source-line="58" id="lnk13"><path codeLine="58" d="M829.3918,630.2739 C776.1918,652.1439 739.73,667.13 699.83,683.53" fill="none" id="Animal-backto-Peixe" style="stroke:#E7E7E7;stroke-width:1;"/><polygon fill="none" points="846.04,623.43,827.1105,624.7245,831.6731,635.8233,846.04,623.43" style="stroke:#E7E7E7;stroke-width:1;"/></g><!--reverse link Animal to Ave--><g class="link" data-entity-1="ent0008" data-entity-2="ent0011" data-link-type="extension" data-source-line="59" id="lnk14"><path codeLine="59" d="M776.0324,594.5907 C628.4824,625.5007 469.56,658.78 351.61,683.48" fill="none" id="Animal-backto-Ave" style="stroke:#E7E7E7;stroke-width:1;"/><polygon fill="none" points="793.65,590.9,774.8022,588.7182,777.2627,600.4632,793.65,590.9" style="stroke:#E7E7E7;stroke-width:1;"/></g><!--link Animal to IComSom--><g class="link" data-entity-1="ent0008" data-entity-2="ent0003" data-link-type="extension" data-source-line="61" id="lnk15"><path codeLine="61" d="M1217.71,623.43 C1256.16,645.3 1278.8843,658.2299 1307.7143,674.6299" fill="none" id="Animal-to-IComSom" style="stroke:#E7E7E7;stroke-width:1;stroke-dasharray:7,7;"/><polygon fill="none" points="1323.36,683.53,1310.681,669.4147,1304.7476,679.8451,1323.36,683.53" style="stroke:#E7E7E7;stroke-width:1;"/></g><!--link Animal to IMovimentacao--><g class="link" data-entity-1="ent0008" data-entity-2="ent0004" data-link-type="extension" data-source-line="62" id="lnk16"><path codeLine="62" d="M1308.24,623.43 C1371.99,646.37 1418.673,663.176 1464.893,679.806" fill="none" id="Animal-to-IMovimentacao" style="stroke:#E7E7E7;stroke-width:1;stroke-dasharray:7,7;"/><polygon fill="none" points="1481.83,685.9,1466.9243,674.1604,1462.8616,685.4517,1481.83,685.9" style="stroke:#E7E7E7;stroke-width:1;"/></g><!--reverse link Mamifero to Gato--><g class="link" data-entity-1="ent0009" data-entity-2="ent0017" data-link-type="extension" data-source-line="96" id="lnk22"><path codeLine="96" d="M1063.2976,758.5804 C1063.8476,775.4204 1063.99,779.73 1064.69,800.79" fill="none" id="Mamifero-backto-Gato" style="stroke:#E7E7E7;stroke-width:1;"/><polygon fill="none" points="1062.71,740.59,1057.3008,758.7763,1069.2944,758.3845,1062.71,740.59" style="stroke:#E7E7E7;stroke-width:1;"/></g><!--reverse link Mamifero to Cachorro--><g class="link" data-entity-1="ent0009" data-entity-2="ent0018" data-link-type="extension" data-source-line="97" id="lnk24"><path codeLine="97" d="M1173.5478,745.7275 C1231.1578,762.5575 1290.05,779.75 1362.01,800.77" fill="none" id="Mamifero-backto-Cachorro" style="stroke:#E7E7E7;stroke-width:1;"/><polygon fill="none" points="1156.27,740.68,1171.8653,751.4868,1175.2303,739.9682,1156.27,740.68" style="stroke:#E7E7E7;stroke-width:1;"/></g><!--reverse link Peixe to Tilapia--><g class="link" data-entity-1="ent0010" data-entity-2="ent0019" data-link-type="extension" data-source-line="98" id="lnk26"><path codeLine="98" d="M625.94,758.3879 C622.89,778.5679 621.34,788.77 617.66,813.1" fill="none" id="Peixe-backto-Tilapia" style="stroke:#E7E7E7;stroke-width:1;"/><polygon fill="none" points="628.63,740.59,620.0074,757.4912,631.8727,759.2845,628.63,740.59" style="stroke:#E7E7E7;stroke-width:1;"/></g><!--reverse link Ave to Pardal--><g class="link" data-entity-1="ent0011" data-entity-2="ent0020" data-link-type="extension" data-source-line="99" id="lnk28"><path codeLine="99" d="M212.6467,758.3704 C209.8167,776.3204 208.8,782.69 205.29,804.94" fill="none" id="Ave-backto-Pardal" style="stroke:#E7E7E7;stroke-width:1;"/><polygon fill="none" points="215.45,740.59,206.72,757.436,218.5735,759.3048,215.45,740.59" style="stroke:#E7E7E7;stroke-width:1;"/></g><!--link Gato to IAnimalDomesticado--><g class="link" data-entity-1="ent0017" data-entity-2="ent0005" data-link-type="extension" data-source-line="101" id="lnk29"><path codeLine="101" d="M1167.27,931.1 C1199.08,951.41 1218.1373,963.5754 1246.4473,981.6454" fill="none" id="Gato-to-IAnimalDomesticado" style="stroke:#E7E7E7;stroke-width:1;stroke-dasharray:7,7;"/><polygon fill="none" points="1261.62,991.33,1249.6755,976.5879,1243.2192,986.703,1261.62,991.33" style="stroke:#E7E7E7;stroke-width:1;"/></g><!--link Cachorro to IAnimalDomesticado--><g class="link" data-entity-1="ent0018" data-entity-2="ent0005" data-link-type="extension" data-source-line="102" id="lnk30"><path codeLine="102" d="M1480.94,931.1 C1449,951.41 1429.8296,963.6021 1401.4096,981.6721" fill="none" id="Cachorro-to-IAnimalDomesticado" style="stroke:#E7E7E7;stroke-width:1;stroke-dasharray:7,7;"/><polygon fill="none" points="1386.22,991.33,1404.6289,986.7353,1398.1904,976.6089,1386.22,991.33" style="stroke:#E7E7E7;stroke-width:1;"/></g><!--link Tilapia to IOviparo--><g class="link" data-entity-1="ent0019" data-entity-2="ent0007" data-link-type="extension" data-source-line="103" id="lnk31"><path codeLine="103" d="M550,918.88 C517.66,946.94 492.6226,968.6699 466.0826,991.7099" fill="none" id="Tilapia-to-IOviparo" style="stroke:#E7E7E7;stroke-width:1;stroke-dasharray:7,7;"/><polygon fill="none" points="452.49,1003.51,470.0159,996.2408,462.1492,987.1791,452.49,1003.51" style="stroke:#E7E7E7;stroke-width:1;"/></g><!--link Pardal to IOviparo--><g class="link" data-entity-1="ent0020" data-entity-2="ent0007" data-link-type="extension" data-source-line="104" id="lnk32"><path codeLine="104" d="M278.3,927.12 C314.17,953.28 339.8822,972.0299 368.4422,992.8399" fill="none" id="Pardal-to-IOviparo" style="stroke:#E7E7E7;stroke-width:1;stroke-dasharray:7,7;"/><polygon fill="none" points="382.99,1003.44,371.9756,987.9906,364.9089,997.6891,382.99,1003.44" style="stroke:#E7E7E7;stroke-width:1;"/></g><!--link Pardal to IVoador--><g class="link" data-entity-1="ent0020" data-entity-2="ent0006" data-link-type="extension" data-source-line="105" id="lnk33"><path codeLine="105" d="M195.8,927.12 C195.8,953.28 195.8,964.63 195.8,985.44" fill="none" id="Pardal-to-IVoador" style="stroke:#E7E7E7;stroke-width:1;stroke-dasharray:7,7;"/><polygon fill="none" points="195.8,1003.44,201.8,985.44,189.8,985.44,195.8,1003.44" style="stroke:#E7E7E7;stroke-width:1;"/></g><!--reverse link Zoologico to Animal--><g class="link" data-entity-1="ent0035" data-entity-2="ent0008" data-link-type="aggregation" data-source-line="128" id="lnk36"><path codeLine="128" d="M1204.9983,376.7031 C1182.0383,401.7331 1165.53,419.71 1142.97,444.29" fill="none" id="Zoologico-backto-Animal" style="stroke:#E7E7E7;stroke-width:1;"/><polygon fill="none" points="1213.11,367.86,1206.1064,369.5776,1204.9983,376.7031,1212.0018,374.9854,1213.11,367.86" style="stroke:#E7E7E7;stroke-width:1;"/><text fill="#FFFFFF" font-family="sans-serif" font-size="13" lengthAdjust="spacing" textLength="49.0991" x="1182.8" y="410.6269">contem</text><text fill="#FFFFFF" font-family="sans-serif" font-size="13" lengthAdjust="spacing" textLength="8.271" x="1198.3129" y="387.6526">1</text><text fill="#FFFFFF" font-family="sans-serif" font-size="13" lengthAdjust="spacing" textLength="6.5" x="1143.2195" y="433.6359">*</text></g><!--link Program to Zoologico--><g class="link" data-entity-1="ent0037" data-entity-2="ent0035" data-link-type="dependency" data-source-line="135" id="lnk38"><path codeLine="135" d="M1092.2,79.9 C1118.24,103.43 1152.9175,134.7481 1190.3475,168.5581" fill="none" id="Program-to-Zoologico" style="stroke:#E7E7E7;stroke-width:1;stroke-dasharray:7,7;"/><polygon fill="#E7E7E7" points="1194.8,172.58,1190.8025,163.5789,1191.0896,169.2284,1185.44,169.5155,1194.8,172.58" style="stroke:#E7E7E7;stroke-width:1;"/><text fill="#FFFFFF" font-family="sans-serif" font-size="13" lengthAdjust="spacing" textLength="51.4287" x="1161.8" y="138.9569">cria/usa</text></g><!--link Program to RepositorioAnimaisJson--><g class="link" data-entity-1="ent0037" data-entity-2="ent0034" data-link-type="dependency" data-source-line="136" id="lnk39"><path codeLine="136" d="M1031.53,79.9 C994.73,113.28 936.1343,166.4291 888.9443,209.2291" fill="none" id="Program-to-RepositorioAnimaisJson" style="stroke:#E7E7E7;stroke-width:1;stroke-dasharray:7,7;"/><polygon fill="#E7E7E7" points="884.5,213.26,893.8537,210.1766,888.2036,209.9009,888.4792,204.2508,884.5,213.26" style="stroke:#E7E7E7;stroke-width:1;"/><text fill="#FFFFFF" font-family="sans-serif" font-size="13" lengthAdjust="spacing" textLength="51.4287" x="978.8" y="138.9569">cria/usa</text></g><!--link RepositorioAnimaisJson to Animal--><g class="link" data-entity-1="ent0034" data-entity-2="ent0008" data-link-type="dependency" data-source-line="137" id="lnk40"><path codeLine="137" d="M873.78,327.01 C904.9,361.06 941.3324,400.9309 976.7624,439.7009" fill="none" id="RepositorioAnimaisJson-to-Animal" style="stroke:#E7E7E7;stroke-width:1;stroke-dasharray:7,7;"/><polygon fill="#E7E7E7" points="980.81,444.13,977.6914,434.7879,977.437,440.4391,971.7859,440.1847,980.81,444.13" style="stroke:#E7E7E7;stroke-width:1;"/><text fill="#FFFFFF" font-family="sans-serif" font-size="13" lengthAdjust="spacing" textLength="134.8179" x="950.8" y="410.6269">serializa/desserializa</text></g><!--SRC=[nLPBRzj64BxhLonygTHAJdiDL06C7AGgwbYmX1vwAKRaH5faoM6MIxPEujyJ8FV-0l-n3lV1XqKMDO8WFEtEuvitPuktCij1GofY1KKH6QFbeJIuYIdRoVSeVfoSP882qzpSYHJJ0-fYClbE_5n_ucLMfeKxJv3FOYzp-WKEqe0H7oP2x55hB8n6FaVlIZ0oflg86cbotm9jCeFw3SGOq6GWYCsQqXsb5ku7yJALHcg-JsVYkQX89ZLCH_gQAfbYPY06yZfCGZqc7sKo1NL5ARifOqY2qXLbn1hikyoEblA2Jp6C0lrEhAozDbz61MygoIaFTbwG0NrJKKywf6LT5uLp4XtO3p0GiWFs7XjNDU5Yy82lEPI-urUi-HgAsEQb3ee9kEURvOPoFUyMpt8s2IGr5FikbiiZcjNAqfsvQTOrD1V9c9MvE0sPc37MXn38_N1fMQAIsfIWxi_hMBkofvqrRwa-PCxVe_nSGohV8ATykPnUpqd7tDEprIgqX-V-xu1c0oQsAF_66dyxL_9uCWTLOcl2Shy8FweiUZI_GwNehnQQ6Ky3ziso_BXODA7tYDRP7eLjD7gNbnzNOIRxjExadRVmch9OOzl2BgnNOCO7hcO-eSkIBi1ix6yXXXjfQBYTYsk8JwJrk9j1uDkxkfSASWdUKtzxGdSyqO-XFvUV1j19yqDobw_cHlzNE-gOxRH5cI-uLPksRshxc14owUbk97nKdcQ7mgAwzZzR92twc42mulX-BmGp_q5qgwQTiIqlPLcOXyzPp6ZT-Rh5d0ffI4kovcNnQq6PBSn2_1bpkDc98lskbDMZhXxMd8wekABjG5LS373opDpK3mJKS52uTE6lUfLQ0pyFZhv-lt48GQgx17UeA_dmYSJq3o95Htv2p7f1DkGGL-j03xFPNSwtMuJa9bDtQr8AOoCfwqasg5CNN9J8c6L2V8eXd7WlebjCROlMtHu5EPyZFXqOrFLeMV0CRqdNwxe_6xC6sKhM8O3sVeVkeSAch9lVy_vQdUkpGRz-fyDBURXe5kZcm4yOZnCTTPcpYHgmLdVUlD9KvXp1Sd-Nyr-kKyksH1S_NGZYdNBn_OLe4iIlJODfM_9RLF3mwU4VtXinF_tw_OrYg-d8RzP-gtjYizHbrfl_mBwyN7KQXarh2S_A0de28sFJaHwHg9NRiYDBA_aUdYLOD9T_0G00]--></g></svg>